<svg height="512" viewBox="0 0 64 64" width="512" xmlns="http://www.w3.org/2000/svg"><g id="Contemplate_thinking_brain_Speech_think"><path d="m61 5v12a2.006 2.006 0 0 1 -2 2h-13l-6 8v-8h-3a2.006 2.006 0 0 1 -2-2v-12a2.006 2.006 0 0 1 2-2h22a2.006 2.006 0 0 1 2 2z" fill="#ffb655"/><path d="m61 5v12a2.006 2.006 0 0 1 -2 2h-4a2.006 2.006 0 0 0 2-2v-12a2.006 2.006 0 0 0 -2-2h4a2.006 2.006 0 0 1 2 2z" fill="#ff9811"/><path d="m46 55a6 6 0 0 1 -12 0v-16a6 6 0 0 1 11.67-1.96 6 6 0 0 1 5.33 5.96 5.909 5.909 0 0 1 -.4 2.15 5.924 5.924 0 0 1 1.4 3.85 6 6 0 0 1 -6 6z" fill="#fee9ab"/><path d="m52 49a6 6 0 0 1 -6 6 6 6 0 0 1 -6 6 5.8 5.8 0 0 1 -2-.35 5.981 5.981 0 0 0 4-5.65 6 6 0 0 0 6-6 5.924 5.924 0 0 0 -1.4-3.85 5.909 5.909 0 0 0 .4-2.15 6 6 0 0 0 -5.33-5.96 5.973 5.973 0 0 0 -3.67-3.69 5.8 5.8 0 0 1 2-.35 6 6 0 0 1 5.67 4.04 6 6 0 0 1 5.33 5.96 5.909 5.909 0 0 1 -.4 2.15 5.924 5.924 0 0 1 1.4 3.85z" fill="#ffde55"/><path d="m30 39v16a6 6 0 0 1 -12 0 6 6 0 0 1 -6-6 5.924 5.924 0 0 1 1.4-3.85 5.909 5.909 0 0 1 -.4-2.15 6 6 0 0 1 5.33-5.96 6 6 0 0 1 11.67 1.96z" fill="#fee9ab"/><path d="m30 39v16a6 6 0 0 1 -6 6 5.8 5.8 0 0 1 -2-.35 5.981 5.981 0 0 0 4-5.65v-16a5.981 5.981 0 0 0 -4-5.65 5.761 5.761 0 0 1 2-.35 6 6 0 0 1 6 6z" fill="#ffde55"/><path d="m29 5v12a2.006 2.006 0 0 1 -2 2h-3v8l-6-8h-13a2.006 2.006 0 0 1 -2-2v-12a2.006 2.006 0 0 1 2-2h22a2.006 2.006 0 0 1 2 2z" fill="#e0e0e2"/><path d="m29 5v12a2.006 2.006 0 0 1 -2 2h-4a2.006 2.006 0 0 0 2-2v-12a2.006 2.006 0 0 0 -2-2h4a2.006 2.006 0 0 1 2 2z" fill="#acabb1"/><path d="m51.71 44.99a6.89 6.89 0 0 0 .29-1.99 7.005 7.005 0 0 0 -5.62-6.86 6.994 6.994 0 0 0 -13.38 2.86v16a7 7 0 0 0 13.93.93 6.961 6.961 0 0 0 4.78-10.94zm-5.71 9.01a5 5 0 0 1 -5-5h-2a7.013 7.013 0 0 0 5.91 6.91 5 5 0 0 1 -9.91-.91v-16a4.992 4.992 0 0 1 9.04-2.93 7.015 7.015 0 0 0 -6.04 6.93h2a5 5 0 0 1 4.9-4.99 5.359 5.359 0 0 1 .1.99 5 5 0 0 1 -5 5v2a7.008 7.008 0 0 0 7-7 5.683 5.683 0 0 0 -.03-.59 5 5 0 0 1 -1.97 9.59v2a6.978 6.978 0 0 0 5.63-2.86 4.823 4.823 0 0 1 .37 1.86 5 5 0 0 1 -5 5z"/><path d="m24 32a6.99 6.99 0 0 0 -6.38 4.14 7.005 7.005 0 0 0 -5.62 6.86 6.89 6.89 0 0 0 .29 1.99 6.961 6.961 0 0 0 4.78 10.94 7 7 0 0 0 13.93-.93v-16a7.008 7.008 0 0 0 -7-7zm5 23a5 5 0 0 1 -9.91.91 7.013 7.013 0 0 0 5.91-6.91h-2a5 5 0 0 1 -10 0 4.823 4.823 0 0 1 .37-1.86 6.978 6.978 0 0 0 5.63 2.86v-2a5 5 0 0 1 -1.97-9.59 5.683 5.683 0 0 0 -.03.59 7.008 7.008 0 0 0 7 7v-2a5 5 0 0 1 -5-5 5.359 5.359 0 0 1 .1-.99 5 5 0 0 1 4.9 4.99h2a7.015 7.015 0 0 0 -6.04-6.93 4.992 4.992 0 0 1 9.04 2.93z"/><path d="m27 2h-22a3.009 3.009 0 0 0 -3 3v12a3.009 3.009 0 0 0 3 3h12.5l5.7 7.6a.985.985 0 0 0 .8.4 1.185 1.185 0 0 0 .32-.05 1.014 1.014 0 0 0 .68-.95v-7h2a3.009 3.009 0 0 0 3-3v-12a3.009 3.009 0 0 0 -3-3zm1 15a1 1 0 0 1 -1 1h-3a1 1 0 0 0 -1 1v5l-4.2-5.6a1.014 1.014 0 0 0 -.8-.4h-13a1 1 0 0 1 -1-1v-12a1 1 0 0 1 1-1h22a1 1 0 0 1 1 1z"/><path d="m59 2h-22a3.009 3.009 0 0 0 -3 3v12a3.009 3.009 0 0 0 3 3h2v7a1.014 1.014 0 0 0 .68.95 1.185 1.185 0 0 0 .32.05.985.985 0 0 0 .8-.4l5.7-7.6h12.5a3.009 3.009 0 0 0 3-3v-12a3.009 3.009 0 0 0 -3-3zm1 15a1 1 0 0 1 -1 1h-13a1.014 1.014 0 0 0 -.8.4l-4.2 5.6v-5a1 1 0 0 0 -1-1h-3a1 1 0 0 1 -1-1v-12a1 1 0 0 1 1-1h22a1 1 0 0 1 1 1z"/><path d="m38 6h2v2h-2z"/><path d="m42 6h16v2h-16z"/><path d="m38 10h20v2h-20z"/><path d="m38 14h16v2h-16z"/><path d="m6 6h2v2h-2z"/><path d="m10 6h16v2h-16z"/><path d="m6 10h20v2h-20z"/><path d="m6 14h20v2h-20z"/><path d="m56 14h2v2h-2z"/></g></svg>